<svg width="47" height="45" fill="none" xmlns="http://www.w3.org/2000/svg"><path d="M21.57 35.61c-1.26-.57-2.25-2.13-3.44-1.55-1.19.58-1.46 2.72-2.9 2.06-1.44-.66.36-3.51-1.56-3.67-1.91-.16-3.36 2.71-4.27 4.19" stroke="#BD2327" stroke-width="2" stroke-miterlimit="10" stroke-linejoin="round"/><path d="M5.1 1L1 5.1v37.96h30.77V1H5.1z" stroke="#BD2327" stroke-width="2" stroke-miterlimit="10" stroke-linejoin="round"/><path d="M7.15 4.08v3.07H4.08M23.57 15.36H9.21M23.57 19.46H9.21M18.44 23.57H9.21M39.47 42.03a16.826 16.826 0 01-2.56-8.94V5.1c0-1.13.92-2.05 2.05-2.05h1.03c1.13 0 2.05.92 2.05 2.05v27.99c-.01 3.16-.9 6.26-2.57 8.94z" stroke="#BD2327" stroke-width="2" stroke-miterlimit="10" stroke-linejoin="round"/><path d="M36.9 8.18h6.15c1.13 0 2.05.92 2.05 2.05v6.15M36.9 21.51h5.13" stroke="#BD2327" stroke-width="2" stroke-miterlimit="10" stroke-linejoin="round"/></svg>