<svg width="38" height="47" fill="none" xmlns="http://www.w3.org/2000/svg"><path d="M24 35v-4c0-4.56 7-5.79 7-10V1H7v20c0 4.21 7 5.44 7 10v4M7 6H1v8.34c0 1.06.42 2.08 1.17 2.83l1.24 1.24c.38.38.89.59 1.42.59H6M31 6h6v8.34c0 1.06-.42 2.08-1.17 2.83l-1.24 1.24c-.38.38-.89.59-1.42.59H32M22 35h3c1.1 0 2 .9 2 2v3M11 40v-3c0-1.1.9-2 2-2h7M23 40h5c1.1 0 2 .9 2 2v4H8v-4c0-1.1.9-2 2-2h11" stroke="#BD2327" stroke-width="2" stroke-miterlimit="10" stroke-linejoin="round"/><path d="M19.01 7l1.91 5.06 5.08.27-3.89 3.56 1.22 5.06-4.32-2.7-4.32 2.7 1.22-5.06-3.89-3.56 5.07-.27L19.01 7z" stroke="#BD2327" stroke-width="2" stroke-miterlimit="10" stroke-linejoin="round"/></svg>