<svg width="48" height="41" fill="none" xmlns="http://www.w3.org/2000/svg"><path d="M29.9 15.21c4.01 0 7.2-5.06 6.1-10.03M23.96 10.04c2.76.59 5.76-1 5.94-3.97M23.96 28c4.06 0 6 1.5 6 4M34.56 12.52c1.8.45 3.41 2.65 3.41 4.48M10.69 35.55c-.56-.96-.89-2.07-.89-3.25 0-1.18.32-2.29.89-3.25M19.11 13.54c-1.77.45-3.15 1.64-3.15 3.46" stroke="#BD2327" stroke-width="2" stroke-miterlimit="10" stroke-linejoin="round"/><path d="M23.96 16c-3.42 0-6-2.76-6-6V6M9.96 21.84c3.61 0 7 3.56 7 7.47V32M16 25.37c1.63-1.79 4.67-2.73 7.96-2.24M11.36 15.18c-1.22 1.22-3.03 1.21-4.24 0L5 13.06M2.94 24.8c1 1.12 2.33 1.87 3.85 2.05M11.96 5v3M42.49 13.23c2.57.79 4.47 3.52 4.47 6.77 0 2.04-.75 3.87-1.94 5.15.15.81.19 1.67.09 2.55-.48 4.16-3.85 7.19-7.53 6.78-.97 2.63-3.47 4.52-6.61 4.52-3.96 0-7.01-3-7.01-6.7V6.96c0-3.45 2.53-5.96 6-5.96 2.85 0 5.28 1.59 6.05 4.18 4.1.13 6.83 4.31 6.48 8.05z" stroke="#BD2327" stroke-width="2" stroke-miterlimit="10" stroke-linejoin="round"/><path d="M37.58 34.48c3.06-7.21-1.9-11.48-6.62-11.19v-1.3c0-2.45-2.17-3-4-3M36.32 25.13c1.87-.43 3.35-2.05 3.35-3.73M2.94 24.81c-.21.91-.28 1.89-.16 2.9.47 4.16 3.8 7.19 7.43 6.78.96 2.63 3.66 4.52 6.76 4.52 3.91 0 7-3.3 7-7V6.7c0-3.45-2.58-5.7-6-5.7-2.81 0-5.24 1.41-6 4-3.39.11-6.62 4.14-6.97 8.05-2.34.97-4 3.56-4 6.61 0 2.03.75 3.87 1.94 5.15z" stroke="#BD2327" stroke-width="2" stroke-miterlimit="10" stroke-linejoin="round"/></svg>