<svg width="49" height="51" fill="none" xmlns="http://www.w3.org/2000/svg"><path d="M17.35 41.92c.39-.39.79-1.02 2.05-1.02h14.33c1.14 0 7.39-6.27 8.19-7.16.76-.86 4.17-5.98 5.12-8.19-.59-.8-2.2-1.46-4.09-1.02-1.81.42-2.87 1.72-4.09 4.09l-4.69 2.44" stroke="#BD2327" stroke-width="2" stroke-miterlimit="10" stroke-linejoin="round"/><path d="M23.49 34.75h8.19c4.09 0 4.09-5.12 0-5.12h-5.41c-.85 0-2.45-2.05-3.8-2.05h-5.12c-1.38 0-3.1 1.12-4.09 2.05l-4.09 4.09M7.12 31.683l-5.119 5.12 12.282 12.282 5.12-5.12L7.12 31.683zM7.12 36.8l2.04 2.05" stroke="#BD2327" stroke-width="2" stroke-miterlimit="10" stroke-linejoin="round"/><path d="M41.78 24.96c.09-.47.14-.97.14-1.49 0-5.36-3.36-10.21-9.21-14.3M27.59 9.16c-5.85 4.1-9.21 8.95-9.21 14.3 0 1.64.46 3 1.26 4.12M32.71 9.16c-.26.41-1.87.62-2.56.62s-2.28-.24-2.56-.62c0 0-2.96-5.5-2.84-5.71 1.07-1.93 3.31-1.56 5.41-1.03 2.98.75 4.17.61 4.74.59.04.79-2.19 6.15-2.19 6.15z" stroke="#BD2327" stroke-width="2" stroke-miterlimit="10"/></svg>